<?xml version="1.0" encoding="utf-8"?>
<!-- Generator: Adobe Illustrator 26.0.3, SVG Export Plug-In . SVG Version: 6.00 Build 0)  -->
<svg version="1.0" id="katman_1" xmlns="http://www.w3.org/2000/svg" xmlns:xlink="http://www.w3.org/1999/xlink" x="0px" y="0px"
	 viewBox="0 0 524 396" style="enable-background:new 0 0 524 396;" xml:space="preserve">
<style type="text/css">
	.st0{fill:#0E1E25;}
	.st1{fill:url(#Shape_00000085934003611763322870000006795305283304942721_);}
</style>
<g id="netlify-cs-color">
	<g id="full-logo-light" transform="translate(1.000000, -1.000000)">
		<path id="Shape" class="st0" d="M210.4,180.8l0.3,5.5c3.6-4.3,8.2-6.4,14-6.4c10,0,15.1,5.7,15.3,17.2v31.7h-10.8v-31.1
			c0-3-0.7-5.3-2-6.8c-1.3-1.5-3.5-2.2-6.5-2.2c-4.4,0-7.6,2-9.7,5.9v34.2h-10.8v-48H210.4L210.4,180.8z M272.3,229.7
			c-6.9,0-12.4-2.2-16.7-6.5c-4.3-4.3-6.4-10-6.4-17.2v-1.3c0-4.8,0.9-9.1,2.8-12.8c1.9-3.8,4.5-6.7,7.8-8.8
			c3.4-2.1,7.1-3.1,11.2-3.1c6.6,0,11.6,2.1,15.2,6.3c3.6,4.2,5.4,10.1,5.4,17.7v4.4h-31.5c0.3,4,1.7,7.1,4,9.4
			c2.3,2.3,5.3,3.5,8.8,3.5c5,0,9-2,12.1-6l5.8,5.5c-1.9,2.9-4.5,5.1-7.7,6.7C279.9,228.9,276.3,229.7,272.3,229.7L272.3,229.7z
			 M271,188.5c-3,0-5.4,1-7.2,3.1c-1.8,2.1-3,5-3.5,8.7h20.6v-0.8c-0.2-3.6-1.2-6.3-2.9-8.2C276.3,189.5,274,188.5,271,188.5
			L271,188.5z M313.5,169.1v11.7h8.5v8h-8.5v26.8c0,1.8,0.4,3.2,1.1,4c0.7,0.8,2,1.2,3.9,1.2c1.3,0,2.5-0.2,3.8-0.4v8.3
			c-2.5,0.7-4.8,1-7.1,1c-8.3,0-12.5-4.6-12.5-13.7v-27.2h-7.9v-8h7.9v-11.7L313.5,169.1L313.5,169.1z M341.8,228.8H331v-68.2h10.8
			V228.8z M365.1,228.8h-10.8v-48h10.8V228.8z M353.6,168.3c0-1.7,0.5-3,1.6-4.1c1.1-1.1,2.6-1.6,4.5-1.6c2,0,3.5,0.5,4.5,1.6
			c1.1,1.1,1.6,2.5,1.6,4.1c0,1.6-0.5,3-1.6,4.1c-1.1,1.1-2.6,1.6-4.5,1.6c-2,0-3.5-0.5-4.5-1.6
			C354.1,171.3,353.6,169.9,353.6,168.3L353.6,168.3z M380.6,228.8v-40h-7.3v-8h7.3v-4.4c0-5.3,1.5-9.4,4.4-12.3
			c3-2.9,7.1-4.3,12.5-4.3c1.9,0,3.9,0.3,6.1,0.8l-0.3,8.4c-1.4-0.3-2.8-0.4-4.1-0.4c-5.2,0-7.7,2.6-7.7,7.9v4.3h9.8v8h-9.8v40
			L380.6,228.8L380.6,228.8z M426,213.4l9.8-32.6h11.5l-19.1,55.3c-2.9,8.1-7.9,12.1-15,12.1c-1.6,0-3.3-0.3-5.2-0.8V239l2,0.1
			c2.7,0,4.8-0.5,6.2-1.5c1.4-1,2.5-2.7,3.3-5l1.6-4.1l-16.9-47.8h11.7L426,213.4z"/>
		
			<radialGradient id="Shape_00000167393637846195882080000012850703980606004892_" cx="-35.7028" cy="426.6568" r="1" gradientTransform="matrix(5.928296e-15 96.8164 96.8164 -5.928296e-15 -41183.4688 3558.3003)" gradientUnits="userSpaceOnUse">
			<stop  offset="0" style="stop-color:#20C6B7"/>
			<stop  offset="1" style="stop-color:#4D9ABF"/>
		</radialGradient>
		
			<path id="Shape_00000137134455103185867550000011993703612550708374_" style="fill:url(#Shape_00000167393637846195882080000012850703980606004892_);" d="
			M145.8,183.7L145.8,183.7C145.7,183.7,145.7,183.7,145.8,183.7c-0.2-0.1-0.2-0.2-0.2-0.3l2-11.9l9.2,9.2l-9.6,4.1c0,0-0.1,0-0.1,0
			h0c0,0,0,0-0.1,0C146.7,184.3,146.2,183.9,145.8,183.7z M159.1,183l9.8,9.8c2,2,3.1,3.1,3.4,4.2c0.1,0.2,0.1,0.3,0.1,0.5
			l-23.5-9.9c0,0,0,0,0,0c-0.1,0-0.2-0.1-0.2-0.2c0-0.1,0.1-0.1,0.2-0.2l0,0L159.1,183z M172.1,200.6c-0.5,0.9-1.5,1.9-3.2,3.6
			l-11.1,11l-14.3-3l-0.1,0c-0.1,0-0.3,0-0.3-0.2c-0.1-1.2-0.7-2.3-1.7-3c-0.1-0.1,0-0.1,0-0.2c0,0,0,0,0,0l2.7-16.5l0-0.1
			c0-0.1,0-0.3,0.2-0.3c1.2-0.1,2.2-0.7,2.9-1.7c0,0,0-0.1,0.1-0.1c0.1,0,0.2,0,0.3,0L172.1,200.6L172.1,200.6z M155.3,217.8
			L137.1,236l3.1-19.1l0,0c0,0,0-0.1,0-0.1c0-0.1,0.1-0.1,0.2-0.1l0,0c0.7-0.3,1.3-0.7,1.8-1.3c0.1-0.1,0.1-0.1,0.2-0.2
			c0,0,0,0,0.1,0L155.3,217.8L155.3,217.8z M133.2,239.8l-2.1,2l-22.7-32.7c0,0,0,0,0,0c0,0-0.1-0.1-0.1-0.2c0,0,0-0.1,0.1-0.1l0,0
			c0.1-0.1,0.1-0.2,0.2-0.3l0.1-0.1l0,0c0-0.1,0.1-0.1,0.1-0.2c0.1,0,0.1,0,0.2,0l25.2,5.2c0.1,0,0.1,0,0.2,0.1c0,0,0,0.1,0,0.1
			c0.4,1.3,1.3,2.4,2.6,3c0.1,0,0,0.1,0,0.2c0,0,0,0.1,0,0.1C136.7,218.8,133.9,235.3,133.2,239.8z M128.9,244.1
			c-1.5,1.5-2.4,2.3-3.4,2.6c-1,0.3-2.1,0.3-3.1,0c-1.2-0.4-2.2-1.4-4.2-3.4l-22.8-22.7l6-9.2c0,0,0.1-0.1,0.1-0.1
			c0.1,0,0.2,0,0.2,0c1.4,0.4,2.8,0.3,4.2-0.2c0.1,0,0.1,0,0.2,0c0,0,0.1,0.1,0.1,0.1L128.9,244.1L128.9,244.1z M93.2,218.4
			l-5.2-5.2l10.3-4.4c0,0,0.1,0,0.1,0c0.1,0,0.1,0.1,0.2,0.2c0.1,0.2,0.2,0.3,0.3,0.5l0,0c0,0,0,0.1,0,0.1L93.2,218.4L93.2,218.4z
			 M85.6,210.8l-6.6-6.6c-1.1-1.1-1.9-1.9-2.5-2.6l20.1,4.2c0,0,0.1,0,0.1,0c0.1,0,0.3,0,0.3,0.2c0,0.1-0.1,0.2-0.3,0.2l-0.1,0
			L85.6,210.8z M75.3,198.2c0-0.4,0.1-0.8,0.2-1.2c0.4-1.2,1.4-2.2,3.4-4.2l8.5-8.4c3.9,5.6,7.8,11.3,11.7,16.9
			c0.1,0.1,0.1,0.2,0.1,0.3c-0.4,0.4-0.7,0.9-1,1.3c0,0.1-0.1,0.1-0.1,0.2c0,0-0.1,0-0.1,0h0L75.3,198.2L75.3,198.2z M89.7,182.1
			l11.4-11.3c1.1,0.5,5,2.1,8.5,3.6c2.6,1.1,5,2.1,5.8,2.4c0.1,0,0.1,0.1,0.2,0.1c0,0,0,0.1,0,0.2c-0.4,1.7,0.1,3.4,1.3,4.6
			c0.1,0.1,0,0.2-0.1,0.3l0,0.1l-11.6,17.8c0,0.1-0.1,0.1-0.1,0.1c-0.1,0-0.1,0-0.2,0c-0.5-0.1-0.9-0.2-1.4-0.2
			c-0.4,0-0.9,0.1-1.3,0.2h0c-0.1,0-0.1,0-0.1,0c0,0-0.1-0.1-0.1-0.1L89.7,182.1L89.7,182.1z M103.4,168.4l14.8-14.7
			c2-2,3.1-3.1,4.2-3.4c1-0.3,2.1-0.3,3.1,0c1.2,0.4,2.2,1.4,4.2,3.4l3.2,3.2l-10.5,16.2c0,0-0.1,0.1-0.1,0.1c-0.1,0-0.2,0-0.2,0
			c-1.7-0.5-3.5-0.2-4.9,0.9c-0.1,0.1-0.2,0-0.3,0C115.6,173.6,105,169.1,103.4,168.4L103.4,168.4z M135.2,159.1l9.7,9.6l-2.3,14.4
			v0c0,0,0,0.1,0,0.1c0,0.1-0.1,0.1-0.1,0.1c-0.5,0.2-1,0.4-1.4,0.7c0,0,0,0-0.1,0c0,0-0.1,0.1-0.1,0.1c0,0-0.1,0-0.1,0l-14.8-6.2
			l0,0c-0.1,0-0.2-0.1-0.2-0.2c-0.1-0.8-0.4-1.6-0.8-2.3c-0.1-0.1-0.1-0.2-0.1-0.4L135.2,159.1z M125.2,180.9l13.8,5.8
			c0.1,0,0.2,0.1,0.2,0.1c0,0,0,0.1,0,0.1c0,0.2-0.1,0.4-0.1,0.7v0.4c0,0.1-0.1,0.1-0.2,0.2l0,0c-2.2,0.9-30.8,13.1-30.8,13.1
			c0,0-0.1,0-0.1,0c-0.1-0.1,0-0.2,0.1-0.3c0,0,0,0,0-0.1l11.4-17.5l0,0c0.1-0.1,0.1-0.2,0.3-0.2l0.1,0c0.3,0,0.5,0.1,0.7,0.1
			c1.7,0,3.3-0.8,4.3-2.3c0,0,0.1-0.1,0.1-0.1C125,180.8,125.1,180.8,125.2,180.9L125.2,180.9z M109.3,204.1l31.2-13.2
			c0,0,0,0,0.1,0c0.2,0.2,0.3,0.3,0.5,0.4l0.1,0c0.1,0,0.1,0.1,0.1,0.1c0,0,0,0,0,0.1l-2.7,16.3l0,0.1c0,0.1,0,0.3-0.2,0.3
			c-1.4,0.1-2.7,0.9-3.5,2.1l0,0c0,0.1-0.1,0.1-0.1,0.1c-0.1,0-0.1,0-0.2,0l-24.8-5.1C109.7,205.4,109.4,204.1,109.3,204.1
			L109.3,204.1z"/>
	</g>
</g>
</svg>
